<svg width="1200" height="400" viewBox="0 0 1200 400" fill="none" xmlns="http://www.w3.org/2000/svg">
  <rect width="1200" height="400" fill="#FFF9F6"/>
  <path d="M0 317C91 275 162 287 242 317C328 349 413 355 512 319C601 286 682 265 780 297C884 331 964 334 1061 301C1115 283 1159 283 1200 295V400H0V317Z" fill="#FDEAE6"/>
  <path d="M0 339C70 312 145 309 223 338C297 366 394 377 486 343C570 313 656 313 733 344C829 382 930 378 1015 340C1087 308 1147 304 1200 317V400H0V339Z" fill="#F9DFDA"/>
  <path d="M947 182L963 147L979 182H967V219H959V182H947Z" fill="#F5C5BC"/>
  <path d="M967 219H994V227H940V219H959H967Z" fill="#EAB5AA"/>
  <circle cx="170" cy="92" r="14" fill="#FFD2DD" opacity="0.7"/>
  <circle cx="205" cy="118" r="8" fill="#FFC0CF" opacity="0.55"/>
  <circle cx="1030" cy="74" r="11" fill="#FFD2DD" opacity="0.6"/>
</svg>
